<?xml version="1.0" encoding="utf-8" standalone="no"?>
<!DOCTYPE svg PUBLIC "-//W3C//DTD SVG 1.1//EN"
  "http://www.w3.org/Graphics/SVG/1.1/DTD/svg11.dtd">
<!-- Created with matplotlib (http://matplotlib.org/) -->
<svg height="432pt" version="1.1" viewBox="0 0 576 432" width="576pt" xmlns="http://www.w3.org/2000/svg" xmlns:xlink="http://www.w3.org/1999/xlink">
 <defs>
  <style type="text/css">
*{stroke-linecap:butt;stroke-linejoin:round;}
  </style>
 </defs>
 <g id="figure_1">
  <g id="patch_1">
   <path d="M 0 432 
L 576 432 
L 576 0 
L 0 0 
z
" style="fill:#ffffff;"/>
  </g>
  <g id="axes_1">
   <g id="patch_2">
    <path d="M 72 378 
L 518.4 378 
L 518.4 51.84 
L 72 51.84 
z
" style="fill:#ffffff;"/>
   </g>
   <g id="matplotlib.axis_1">
    <g id="xtick_1">
     <g id="line2d_1">
      <path clip-path="url(#p4043edc133)" d="M 92.290909 378 
L 92.290909 51.84 
" style="fill:none;stroke:#b0b0b0;stroke-linecap:square;stroke-width:0.8;"/>
     </g>
     <g id="line2d_2">
      <defs>
       <path d="M 0 0 
L 0 3.5 
" id="mef22ba38a7" style="stroke:#000000;stroke-width:0.8;"/>
      </defs>
      <g>
       <use style="stroke:#000000;stroke-width:0.8;" x="92.290909" xlink:href="#mef22ba38a7" y="378"/>
      </g>
     </g>
     <g id="text_1">
      <!-- јануар -->
      <defs>
       <path d="M 9.421875 54.6875 
L 18.40625 54.6875 
L 18.40625 -0.984375 
Q 18.40625 -11.421875 14.421875 -16.109375 
Q 10.453125 -20.796875 1.609375 -20.796875 
L -1.8125 -20.796875 
L -1.8125 -13.1875 
L 0.59375 -13.1875 
Q 5.71875 -13.1875 7.5625 -10.8125 
Q 9.421875 -8.453125 9.421875 -0.984375 
z
M 9.421875 75.984375 
L 18.40625 75.984375 
L 18.40625 64.59375 
L 9.421875 64.59375 
z
" id="DejaVuSans-458"/>
       <path d="M 34.28125 27.484375 
Q 23.390625 27.484375 19.1875 25 
Q 14.984375 22.515625 14.984375 16.5 
Q 14.984375 11.71875 18.140625 8.90625 
Q 21.296875 6.109375 26.703125 6.109375 
Q 34.1875 6.109375 38.703125 11.40625 
Q 43.21875 16.703125 43.21875 25.484375 
L 43.21875 27.484375 
z
M 52.203125 31.203125 
L 52.203125 0 
L 43.21875 0 
L 43.21875 8.296875 
Q 40.140625 3.328125 35.546875 0.953125 
Q 30.953125 -1.421875 24.3125 -1.421875 
Q 15.921875 -1.421875 10.953125 3.296875 
Q 6 8.015625 6 15.921875 
Q 6 25.140625 12.171875 29.828125 
Q 18.359375 34.515625 30.609375 34.515625 
L 43.21875 34.515625 
L 43.21875 35.40625 
Q 43.21875 41.609375 39.140625 45 
Q 35.0625 48.390625 27.6875 48.390625 
Q 23 48.390625 18.546875 47.265625 
Q 14.109375 46.140625 10.015625 43.890625 
L 10.015625 52.203125 
Q 14.9375 54.109375 19.578125 55.046875 
Q 24.21875 56 28.609375 56 
Q 40.484375 56 46.34375 49.84375 
Q 52.203125 43.703125 52.203125 31.203125 
z
" id="DejaVuSans-430"/>
       <path d="M 9.078125 54.6875 
L 18.109375 54.6875 
L 18.109375 32.375 
L 47.265625 32.375 
L 47.265625 54.6875 
L 56.296875 54.6875 
L 56.296875 0 
L 47.265625 0 
L 47.265625 25.203125 
L 18.109375 25.203125 
L 18.109375 0 
L 9.078125 0 
z
" id="DejaVuSans-43d"/>
       <path d="M 32.171875 -5.078125 
Q 28.375 -14.84375 24.75 -17.8125 
Q 21.140625 -20.796875 15.09375 -20.796875 
L 7.90625 -20.796875 
L 7.90625 -13.28125 
L 13.1875 -13.28125 
Q 16.890625 -13.28125 18.9375 -11.515625 
Q 21 -9.765625 23.484375 -3.21875 
L 25.09375 0.875 
L 2.984375 54.6875 
L 12.5 54.6875 
L 29.59375 11.921875 
L 46.6875 54.6875 
L 56.203125 54.6875 
z
" id="DejaVuSans-443"/>
       <path d="M 18.109375 8.203125 
L 18.109375 -20.796875 
L 9.078125 -20.796875 
L 9.078125 54.6875 
L 18.109375 54.6875 
L 18.109375 46.390625 
Q 20.953125 51.265625 25.265625 53.625 
Q 29.59375 56 35.59375 56 
Q 45.5625 56 51.78125 48.09375 
Q 58.015625 40.1875 58.015625 27.296875 
Q 58.015625 14.40625 51.78125 6.484375 
Q 45.5625 -1.421875 35.59375 -1.421875 
Q 29.59375 -1.421875 25.265625 0.953125 
Q 20.953125 3.328125 18.109375 8.203125 
z
M 48.6875 27.296875 
Q 48.6875 37.203125 44.609375 42.84375 
Q 40.53125 48.484375 33.40625 48.484375 
Q 26.265625 48.484375 22.1875 42.84375 
Q 18.109375 37.203125 18.109375 27.296875 
Q 18.109375 17.390625 22.1875 11.75 
Q 26.265625 6.109375 33.40625 6.109375 
Q 40.53125 6.109375 44.609375 11.75 
Q 48.6875 17.390625 48.6875 27.296875 
z
" id="DejaVuSans-440"/>
      </defs>
      <g transform="translate(75.371378 392.598437)scale(0.1 -0.1)">
       <use xlink:href="#DejaVuSans-458"/>
       <use x="27.783203" xlink:href="#DejaVuSans-430"/>
       <use x="89.0625" xlink:href="#DejaVuSans-43d"/>
       <use x="154.443359" xlink:href="#DejaVuSans-443"/>
       <use x="213.623047" xlink:href="#DejaVuSans-430"/>
       <use x="274.902344" xlink:href="#DejaVuSans-440"/>
      </g>
     </g>
    </g>
    <g id="xtick_2">
     <g id="line2d_3">
      <path clip-path="url(#p4043edc133)" d="M 159.927273 378 
L 159.927273 51.84 
" style="fill:none;stroke:#b0b0b0;stroke-linecap:square;stroke-width:0.8;"/>
     </g>
     <g id="line2d_4">
      <g>
       <use style="stroke:#000000;stroke-width:0.8;" x="159.927273" xlink:href="#mef22ba38a7" y="378"/>
      </g>
     </g>
     <g id="text_2">
      <!-- фебруар -->
      <defs>
       <path d="M 14.796875 27.296875 
Q 14.796875 15.828125 18.328125 10.96875 
Q 21.875 6.109375 27.875 6.109375 
Q 32.671875 6.109375 38.234375 14.3125 
L 38.234375 40.28125 
Q 32.671875 48.484375 27.875 48.484375 
Q 21.875 48.484375 18.328125 43.625 
Q 14.796875 38.765625 14.796875 27.296875 
z
M 38.234375 -20.796875 
L 38.234375 6.984375 
Q 35.453125 2.390625 32.25 0.484375 
Q 29.046875 -1.421875 25 -1.421875 
Q 16.84375 -1.421875 11.15625 6.125 
Q 5.46875 13.671875 5.46875 27.09375 
Q 5.46875 40.53125 11.15625 48.265625 
Q 16.84375 56 25 56 
Q 29.046875 56 32.25 54.140625 
Q 35.453125 52.296875 38.234375 47.703125 
L 38.234375 72.90625 
L 47.265625 72.90625 
L 47.265625 47.703125 
Q 50.046875 52.296875 53.25 54.140625 
Q 56.453125 56 60.5 56 
Q 68.65625 56 74.34375 48.265625 
Q 80.03125 40.53125 80.03125 27.09375 
Q 80.03125 13.671875 74.34375 6.125 
Q 68.65625 -1.421875 60.5 -1.421875 
Q 56.453125 -1.421875 53.25 0.484375 
Q 50.046875 2.390625 47.265625 6.984375 
L 47.265625 -20.796875 
z
M 70.703125 27.296875 
Q 70.703125 38.765625 67.15625 43.625 
Q 63.625 48.484375 57.625 48.484375 
Q 52.828125 48.484375 47.265625 40.28125 
L 47.265625 14.3125 
Q 52.828125 6.109375 57.625 6.109375 
Q 63.625 6.109375 67.15625 10.96875 
Q 70.703125 15.828125 70.703125 27.296875 
z
" id="DejaVuSans-444"/>
       <path d="M 56.203125 29.59375 
L 56.203125 25.203125 
L 14.890625 25.203125 
Q 15.484375 15.921875 20.484375 11.0625 
Q 25.484375 6.203125 34.421875 6.203125 
Q 39.59375 6.203125 44.453125 7.46875 
Q 49.3125 8.734375 54.109375 11.28125 
L 54.109375 2.78125 
Q 49.265625 0.734375 44.1875 -0.34375 
Q 39.109375 -1.421875 33.890625 -1.421875 
Q 20.796875 -1.421875 13.15625 6.1875 
Q 5.515625 13.8125 5.515625 26.8125 
Q 5.515625 40.234375 12.765625 48.109375 
Q 20.015625 56 32.328125 56 
Q 43.359375 56 49.78125 48.890625 
Q 56.203125 41.796875 56.203125 29.59375 
z
M 47.21875 32.234375 
Q 47.125 39.59375 43.09375 43.984375 
Q 39.0625 48.390625 32.421875 48.390625 
Q 24.90625 48.390625 20.390625 44.140625 
Q 15.875 39.890625 15.1875 32.171875 
z
" id="DejaVuSans-435"/>
       <path d="M 31.109375 56 
Q 42.828125 56 49.515625 48.375 
Q 56.203125 40.765625 56.203125 27.296875 
Q 56.203125 13.875 49.515625 6.21875 
Q 42.828125 -1.421875 31.109375 -1.421875 
Q 19.34375 -1.421875 12.84375 6 
Q 6.34375 13.421875 6 27.296875 
L 5.71875 38.484375 
Q 5.46875 44.28125 5.46875 46.296875 
Q 5.46875 54.109375 8.296875 59.859375 
Q 12.75 68.890625 20.4375 72.796875 
Q 28.125 76.703125 41.015625 76.8125 
Q 46.96875 76.859375 49.609375 77.6875 
L 52.09375 70.5625 
Q 49.703125 69.578125 47.515625 69.53125 
L 35.296875 68.703125 
Q 29.15625 68.265625 25.4375 66.109375 
Q 15.71875 60.40625 14.796875 52.9375 
L 14.453125 50.203125 
Q 20.796875 56 31.109375 56 
z
M 31.109375 48.390625 
Q 23.875 48.390625 19.671875 42.75 
Q 15.484375 37.109375 15.484375 27.296875 
Q 15.484375 17.484375 19.65625 11.84375 
Q 23.828125 6.203125 31.109375 6.203125 
Q 38.28125 6.203125 42.484375 11.859375 
Q 46.6875 17.53125 46.6875 27.296875 
Q 46.6875 37.015625 42.484375 42.703125 
Q 38.28125 48.390625 31.109375 48.390625 
z
" id="DejaVuSans-431"/>
      </defs>
      <g transform="translate(137.120241 392.76875)scale(0.1 -0.1)">
       <use xlink:href="#DejaVuSans-444"/>
       <use x="85.498047" xlink:href="#DejaVuSans-435"/>
       <use x="147.021484" xlink:href="#DejaVuSans-431"/>
       <use x="208.691406" xlink:href="#DejaVuSans-440"/>
       <use x="272.167969" xlink:href="#DejaVuSans-443"/>
       <use x="331.347656" xlink:href="#DejaVuSans-430"/>
       <use x="392.626953" xlink:href="#DejaVuSans-440"/>
      </g>
     </g>
    </g>
    <g id="xtick_3">
     <g id="line2d_5">
      <path clip-path="url(#p4043edc133)" d="M 227.563636 378 
L 227.563636 51.84 
" style="fill:none;stroke:#b0b0b0;stroke-linecap:square;stroke-width:0.8;"/>
     </g>
     <g id="line2d_6">
      <g>
       <use style="stroke:#000000;stroke-width:0.8;" x="227.563636" xlink:href="#mef22ba38a7" y="378"/>
      </g>
     </g>
     <g id="text_3">
      <!-- јун -->
      <g transform="translate(219.946449 392.598437)scale(0.1 -0.1)">
       <use xlink:href="#DejaVuSans-458"/>
       <use x="27.783203" xlink:href="#DejaVuSans-443"/>
       <use x="86.962891" xlink:href="#DejaVuSans-43d"/>
      </g>
     </g>
    </g>
    <g id="xtick_4">
     <g id="line2d_7">
      <path clip-path="url(#p4043edc133)" d="M 295.2 378 
L 295.2 51.84 
" style="fill:none;stroke:#b0b0b0;stroke-linecap:square;stroke-width:0.8;"/>
     </g>
     <g id="line2d_8">
      <g>
       <use style="stroke:#000000;stroke-width:0.8;" x="295.2" xlink:href="#mef22ba38a7" y="378"/>
      </g>
     </g>
     <g id="text_4">
      <!-- јул -->
      <defs>
       <path d="M 3.71875 0 
L 3.71875 7.46875 
Q 12.59375 8.84375 15.328125 14.984375 
Q 18.65625 23.640625 18.65625 45.75 
L 18.65625 54.6875 
L 55.609375 54.6875 
L 55.609375 0 
L 46.625 0 
L 46.625 47.515625 
L 27.640625 47.515625 
L 27.640625 42.09375 
Q 27.640625 21 23.34375 11.53125 
Q 18.75 1.421875 3.71875 0 
z
" id="DejaVuSans-43b"/>
      </defs>
      <g transform="translate(287.655469 392.598437)scale(0.1 -0.1)">
       <use xlink:href="#DejaVuSans-458"/>
       <use x="27.783203" xlink:href="#DejaVuSans-443"/>
       <use x="86.962891" xlink:href="#DejaVuSans-43b"/>
      </g>
     </g>
    </g>
    <g id="xtick_5">
     <g id="line2d_9">
      <path clip-path="url(#p4043edc133)" d="M 362.836364 378 
L 362.836364 51.84 
" style="fill:none;stroke:#b0b0b0;stroke-linecap:square;stroke-width:0.8;"/>
     </g>
     <g id="line2d_10">
      <g>
       <use style="stroke:#000000;stroke-width:0.8;" x="362.836364" xlink:href="#mef22ba38a7" y="378"/>
      </g>
     </g>
     <g id="text_5">
      <!-- август -->
      <defs>
       <path d="M 18.0625 25.203125 
L 18.0625 7.171875 
L 30.859375 7.171875 
Q 37.015625 7.171875 40.234375 9.484375 
Q 43.453125 11.8125 43.453125 16.21875 
Q 43.453125 20.609375 40.234375 22.90625 
Q 37.015625 25.203125 30.859375 25.203125 
z
M 18.0625 47.515625 
L 18.0625 32.375 
L 29.890625 32.375 
Q 34.96875 32.375 38.1875 34.390625 
Q 41.40625 36.421875 41.40625 40.046875 
Q 41.40625 43.65625 38.1875 45.578125 
Q 34.96875 47.515625 29.890625 47.515625 
z
M 9.078125 54.6875 
L 30.46875 54.6875 
Q 40.09375 54.6875 45.265625 51.171875 
Q 50.4375 47.65625 50.4375 41.15625 
Q 50.4375 36.140625 47.796875 33.171875 
Q 45.171875 30.21875 39.984375 29.5 
Q 46.1875 28.328125 49.609375 24.609375 
Q 53.03125 20.90625 53.03125 15.328125 
Q 53.03125 8.015625 47.390625 4 
Q 41.75 0 31.296875 0 
L 9.078125 0 
z
" id="DejaVuSans-432"/>
       <path d="M 9.078125 0 
L 9.078125 54.6875 
L 47.65625 54.6875 
L 47.65625 47.515625 
L 18.109375 47.515625 
L 18.109375 0 
z
" id="DejaVuSans-433"/>
       <path d="M 48.78125 52.59375 
L 48.78125 44.1875 
Q 44.96875 46.296875 41.140625 47.34375 
Q 37.3125 48.390625 33.40625 48.390625 
Q 24.65625 48.390625 19.8125 42.84375 
Q 14.984375 37.3125 14.984375 27.296875 
Q 14.984375 17.28125 19.8125 11.734375 
Q 24.65625 6.203125 33.40625 6.203125 
Q 37.3125 6.203125 41.140625 7.25 
Q 44.96875 8.296875 48.78125 10.40625 
L 48.78125 2.09375 
Q 45.015625 0.34375 40.984375 -0.53125 
Q 36.96875 -1.421875 32.421875 -1.421875 
Q 20.0625 -1.421875 12.78125 6.34375 
Q 5.515625 14.109375 5.515625 27.296875 
Q 5.515625 40.671875 12.859375 48.328125 
Q 20.21875 56 33.015625 56 
Q 37.15625 56 41.109375 55.140625 
Q 45.0625 54.296875 48.78125 52.59375 
z
" id="DejaVuSans-441"/>
       <path d="M 2.9375 54.6875 
L 55.328125 54.6875 
L 55.328125 47.515625 
L 33.546875 47.515625 
L 33.546875 0 
L 24.703125 0 
L 24.703125 47.515625 
L 2.9375 47.515625 
z
" id="DejaVuSans-442"/>
      </defs>
      <g transform="translate(345.576989 392.598437)scale(0.1 -0.1)">
       <use xlink:href="#DejaVuSans-430"/>
       <use x="61.279297" xlink:href="#DejaVuSans-432"/>
       <use x="120.214844" xlink:href="#DejaVuSans-433"/>
       <use x="172.753906" xlink:href="#DejaVuSans-443"/>
       <use x="231.933594" xlink:href="#DejaVuSans-441"/>
       <use x="286.914062" xlink:href="#DejaVuSans-442"/>
      </g>
     </g>
    </g>
    <g id="xtick_6">
     <g id="line2d_11">
      <path clip-path="url(#p4043edc133)" d="M 430.472727 378 
L 430.472727 51.84 
" style="fill:none;stroke:#b0b0b0;stroke-linecap:square;stroke-width:0.8;"/>
     </g>
     <g id="line2d_12">
      <g>
       <use style="stroke:#000000;stroke-width:0.8;" x="430.472727" xlink:href="#mef22ba38a7" y="378"/>
      </g>
     </g>
     <g id="text_6">
      <!-- септембар -->
      <defs>
       <path d="M 56.296875 54.6875 
L 56.296875 0 
L 47.265625 0 
L 47.265625 47.515625 
L 18.109375 47.515625 
L 18.109375 0 
L 9.078125 0 
L 9.078125 54.6875 
z
" id="DejaVuSans-43f"/>
       <path d="M 9.078125 54.6875 
L 22.21875 54.6875 
L 37.75 18.0625 
L 53.328125 54.6875 
L 66.359375 54.6875 
L 66.359375 0 
L 57.328125 0 
L 57.328125 46.09375 
L 42.234375 10.5 
L 33.25 10.5 
L 18.109375 46.09375 
L 18.109375 0 
L 9.078125 0 
z
" id="DejaVuSans-43c"/>
      </defs>
      <g transform="translate(402.295384 392.76875)scale(0.1 -0.1)">
       <use xlink:href="#DejaVuSans-441"/>
       <use x="54.980469" xlink:href="#DejaVuSans-435"/>
       <use x="116.503906" xlink:href="#DejaVuSans-43f"/>
       <use x="181.884766" xlink:href="#DejaVuSans-442"/>
       <use x="240.136719" xlink:href="#DejaVuSans-435"/>
       <use x="301.660156" xlink:href="#DejaVuSans-43c"/>
       <use x="377.099609" xlink:href="#DejaVuSans-431"/>
       <use x="438.769531" xlink:href="#DejaVuSans-430"/>
       <use x="500.048828" xlink:href="#DejaVuSans-440"/>
      </g>
     </g>
    </g>
    <g id="xtick_7">
     <g id="line2d_13">
      <path clip-path="url(#p4043edc133)" d="M 498.109091 378 
L 498.109091 51.84 
" style="fill:none;stroke:#b0b0b0;stroke-linecap:square;stroke-width:0.8;"/>
     </g>
     <g id="line2d_14">
      <g>
       <use style="stroke:#000000;stroke-width:0.8;" x="498.109091" xlink:href="#mef22ba38a7" y="378"/>
      </g>
     </g>
     <g id="text_7">
      <!-- октобар -->
      <defs>
       <path d="M 30.609375 48.390625 
Q 23.390625 48.390625 19.1875 42.75 
Q 14.984375 37.109375 14.984375 27.296875 
Q 14.984375 17.484375 19.15625 11.84375 
Q 23.34375 6.203125 30.609375 6.203125 
Q 37.796875 6.203125 41.984375 11.859375 
Q 46.1875 17.53125 46.1875 27.296875 
Q 46.1875 37.015625 41.984375 42.703125 
Q 37.796875 48.390625 30.609375 48.390625 
z
M 30.609375 56 
Q 42.328125 56 49.015625 48.375 
Q 55.71875 40.765625 55.71875 27.296875 
Q 55.71875 13.875 49.015625 6.21875 
Q 42.328125 -1.421875 30.609375 -1.421875 
Q 18.84375 -1.421875 12.171875 6.21875 
Q 5.515625 13.875 5.515625 27.296875 
Q 5.515625 40.765625 12.171875 48.375 
Q 18.84375 56 30.609375 56 
z
" id="DejaVuSans-43e"/>
       <path d="M 9.078125 54.6875 
L 18.015625 54.6875 
L 18.015625 29 
L 43.359375 54.6875 
L 54.390625 54.6875 
L 33.5 33.546875 
L 57.078125 0 
L 47.015625 0 
L 27.640625 27.59375 
L 18.015625 17.828125 
L 18.015625 0 
L 9.078125 0 
z
" id="DejaVuSans-43a"/>
      </defs>
      <g transform="translate(476.735653 392.76875)scale(0.1 -0.1)">
       <use xlink:href="#DejaVuSans-43e"/>
       <use x="61.181641" xlink:href="#DejaVuSans-43a"/>
       <use x="121.582031" xlink:href="#DejaVuSans-442"/>
       <use x="179.833984" xlink:href="#DejaVuSans-43e"/>
       <use x="241.015625" xlink:href="#DejaVuSans-431"/>
       <use x="302.685547" xlink:href="#DejaVuSans-430"/>
       <use x="363.964844" xlink:href="#DejaVuSans-440"/>
      </g>
     </g>
    </g>
    <g id="text_8">
     <!-- Рок -->
     <defs>
      <path d="M 19.671875 64.796875 
L 19.671875 37.40625 
L 32.078125 37.40625 
Q 38.96875 37.40625 42.71875 40.96875 
Q 46.484375 44.53125 46.484375 51.125 
Q 46.484375 57.671875 42.71875 61.234375 
Q 38.96875 64.796875 32.078125 64.796875 
z
M 9.8125 72.90625 
L 32.078125 72.90625 
Q 44.34375 72.90625 50.609375 67.359375 
Q 56.890625 61.8125 56.890625 51.125 
Q 56.890625 40.328125 50.609375 34.8125 
Q 44.34375 29.296875 32.078125 29.296875 
L 19.671875 29.296875 
L 19.671875 0 
L 9.8125 0 
z
" id="DejaVuSans-420"/>
     </defs>
     <g transform="translate(286.105469 406.446875)scale(0.1 -0.1)">
      <use xlink:href="#DejaVuSans-420"/>
      <use x="60.302734" xlink:href="#DejaVuSans-43e"/>
      <use x="121.484375" xlink:href="#DejaVuSans-43a"/>
     </g>
    </g>
   </g>
   <g id="matplotlib.axis_2">
    <g id="ytick_1">
     <g id="line2d_15">
      <path clip-path="url(#p4043edc133)" d="M 72 363.174545 
L 518.4 363.174545 
" style="fill:none;stroke:#b0b0b0;stroke-linecap:square;stroke-width:0.8;"/>
     </g>
     <g id="line2d_16">
      <defs>
       <path d="M 0 0 
L -3.5 0 
" id="m868fdf5250" style="stroke:#000000;stroke-width:0.8;"/>
      </defs>
      <g>
       <use style="stroke:#000000;stroke-width:0.8;" x="72" xlink:href="#m868fdf5250" y="363.174545"/>
      </g>
     </g>
     <g id="text_9">
      <!-- 0 -->
      <defs>
       <path d="M 31.78125 66.40625 
Q 24.171875 66.40625 20.328125 58.90625 
Q 16.5 51.421875 16.5 36.375 
Q 16.5 21.390625 20.328125 13.890625 
Q 24.171875 6.390625 31.78125 6.390625 
Q 39.453125 6.390625 43.28125 13.890625 
Q 47.125 21.390625 47.125 36.375 
Q 47.125 51.421875 43.28125 58.90625 
Q 39.453125 66.40625 31.78125 66.40625 
z
M 31.78125 74.21875 
Q 44.046875 74.21875 50.515625 64.515625 
Q 56.984375 54.828125 56.984375 36.375 
Q 56.984375 17.96875 50.515625 8.265625 
Q 44.046875 -1.421875 31.78125 -1.421875 
Q 19.53125 -1.421875 13.0625 8.265625 
Q 6.59375 17.96875 6.59375 36.375 
Q 6.59375 54.828125 13.0625 64.515625 
Q 19.53125 74.21875 31.78125 74.21875 
z
" id="DejaVuSans-30"/>
      </defs>
      <g transform="translate(58.6375 366.973764)scale(0.1 -0.1)">
       <use xlink:href="#DejaVuSans-30"/>
      </g>
     </g>
    </g>
    <g id="ytick_2">
     <g id="line2d_17">
      <path clip-path="url(#p4043edc133)" d="M 72 326.766258 
L 518.4 326.766258 
" style="fill:none;stroke:#b0b0b0;stroke-linecap:square;stroke-width:0.8;"/>
     </g>
     <g id="line2d_18">
      <g>
       <use style="stroke:#000000;stroke-width:0.8;" x="72" xlink:href="#m868fdf5250" y="326.766258"/>
      </g>
     </g>
     <g id="text_10">
      <!-- 2000 -->
      <defs>
       <path d="M 19.1875 8.296875 
L 53.609375 8.296875 
L 53.609375 0 
L 7.328125 0 
L 7.328125 8.296875 
Q 12.9375 14.109375 22.625 23.890625 
Q 32.328125 33.6875 34.8125 36.53125 
Q 39.546875 41.84375 41.421875 45.53125 
Q 43.3125 49.21875 43.3125 52.78125 
Q 43.3125 58.59375 39.234375 62.25 
Q 35.15625 65.921875 28.609375 65.921875 
Q 23.96875 65.921875 18.8125 64.3125 
Q 13.671875 62.703125 7.8125 59.421875 
L 7.8125 69.390625 
Q 13.765625 71.78125 18.9375 73 
Q 24.125 74.21875 28.421875 74.21875 
Q 39.75 74.21875 46.484375 68.546875 
Q 53.21875 62.890625 53.21875 53.421875 
Q 53.21875 48.921875 51.53125 44.890625 
Q 49.859375 40.875 45.40625 35.40625 
Q 44.1875 33.984375 37.640625 27.21875 
Q 31.109375 20.453125 19.1875 8.296875 
z
" id="DejaVuSans-32"/>
      </defs>
      <g transform="translate(39.55 330.565477)scale(0.1 -0.1)">
       <use xlink:href="#DejaVuSans-32"/>
       <use x="63.623047" xlink:href="#DejaVuSans-30"/>
       <use x="127.246094" xlink:href="#DejaVuSans-30"/>
       <use x="190.869141" xlink:href="#DejaVuSans-30"/>
      </g>
     </g>
    </g>
    <g id="ytick_3">
     <g id="line2d_19">
      <path clip-path="url(#p4043edc133)" d="M 72 290.357971 
L 518.4 290.357971 
" style="fill:none;stroke:#b0b0b0;stroke-linecap:square;stroke-width:0.8;"/>
     </g>
     <g id="line2d_20">
      <g>
       <use style="stroke:#000000;stroke-width:0.8;" x="72" xlink:href="#m868fdf5250" y="290.357971"/>
      </g>
     </g>
     <g id="text_11">
      <!-- 4000 -->
      <defs>
       <path d="M 37.796875 64.3125 
L 12.890625 25.390625 
L 37.796875 25.390625 
z
M 35.203125 72.90625 
L 47.609375 72.90625 
L 47.609375 25.390625 
L 58.015625 25.390625 
L 58.015625 17.1875 
L 47.609375 17.1875 
L 47.609375 0 
L 37.796875 0 
L 37.796875 17.1875 
L 4.890625 17.1875 
L 4.890625 26.703125 
z
" id="DejaVuSans-34"/>
      </defs>
      <g transform="translate(39.55 294.15719)scale(0.1 -0.1)">
       <use xlink:href="#DejaVuSans-34"/>
       <use x="63.623047" xlink:href="#DejaVuSans-30"/>
       <use x="127.246094" xlink:href="#DejaVuSans-30"/>
       <use x="190.869141" xlink:href="#DejaVuSans-30"/>
      </g>
     </g>
    </g>
    <g id="ytick_4">
     <g id="line2d_21">
      <path clip-path="url(#p4043edc133)" d="M 72 253.949684 
L 518.4 253.949684 
" style="fill:none;stroke:#b0b0b0;stroke-linecap:square;stroke-width:0.8;"/>
     </g>
     <g id="line2d_22">
      <g>
       <use style="stroke:#000000;stroke-width:0.8;" x="72" xlink:href="#m868fdf5250" y="253.949684"/>
      </g>
     </g>
     <g id="text_12">
      <!-- 6000 -->
      <defs>
       <path d="M 33.015625 40.375 
Q 26.375 40.375 22.484375 35.828125 
Q 18.609375 31.296875 18.609375 23.390625 
Q 18.609375 15.53125 22.484375 10.953125 
Q 26.375 6.390625 33.015625 6.390625 
Q 39.65625 6.390625 43.53125 10.953125 
Q 47.40625 15.53125 47.40625 23.390625 
Q 47.40625 31.296875 43.53125 35.828125 
Q 39.65625 40.375 33.015625 40.375 
z
M 52.59375 71.296875 
L 52.59375 62.3125 
Q 48.875 64.0625 45.09375 64.984375 
Q 41.3125 65.921875 37.59375 65.921875 
Q 27.828125 65.921875 22.671875 59.328125 
Q 17.53125 52.734375 16.796875 39.40625 
Q 19.671875 43.65625 24.015625 45.921875 
Q 28.375 48.1875 33.59375 48.1875 
Q 44.578125 48.1875 50.953125 41.515625 
Q 57.328125 34.859375 57.328125 23.390625 
Q 57.328125 12.15625 50.6875 5.359375 
Q 44.046875 -1.421875 33.015625 -1.421875 
Q 20.359375 -1.421875 13.671875 8.265625 
Q 6.984375 17.96875 6.984375 36.375 
Q 6.984375 53.65625 15.1875 63.9375 
Q 23.390625 74.21875 37.203125 74.21875 
Q 40.921875 74.21875 44.703125 73.484375 
Q 48.484375 72.75 52.59375 71.296875 
z
" id="DejaVuSans-36"/>
      </defs>
      <g transform="translate(39.55 257.748903)scale(0.1 -0.1)">
       <use xlink:href="#DejaVuSans-36"/>
       <use x="63.623047" xlink:href="#DejaVuSans-30"/>
       <use x="127.246094" xlink:href="#DejaVuSans-30"/>
       <use x="190.869141" xlink:href="#DejaVuSans-30"/>
      </g>
     </g>
    </g>
    <g id="ytick_5">
     <g id="line2d_23">
      <path clip-path="url(#p4043edc133)" d="M 72 217.541397 
L 518.4 217.541397 
" style="fill:none;stroke:#b0b0b0;stroke-linecap:square;stroke-width:0.8;"/>
     </g>
     <g id="line2d_24">
      <g>
       <use style="stroke:#000000;stroke-width:0.8;" x="72" xlink:href="#m868fdf5250" y="217.541397"/>
      </g>
     </g>
     <g id="text_13">
      <!-- 8000 -->
      <defs>
       <path d="M 31.78125 34.625 
Q 24.75 34.625 20.71875 30.859375 
Q 16.703125 27.09375 16.703125 20.515625 
Q 16.703125 13.921875 20.71875 10.15625 
Q 24.75 6.390625 31.78125 6.390625 
Q 38.8125 6.390625 42.859375 10.171875 
Q 46.921875 13.96875 46.921875 20.515625 
Q 46.921875 27.09375 42.890625 30.859375 
Q 38.875 34.625 31.78125 34.625 
z
M 21.921875 38.8125 
Q 15.578125 40.375 12.03125 44.71875 
Q 8.5 49.078125 8.5 55.328125 
Q 8.5 64.0625 14.71875 69.140625 
Q 20.953125 74.21875 31.78125 74.21875 
Q 42.671875 74.21875 48.875 69.140625 
Q 55.078125 64.0625 55.078125 55.328125 
Q 55.078125 49.078125 51.53125 44.71875 
Q 48 40.375 41.703125 38.8125 
Q 48.828125 37.15625 52.796875 32.3125 
Q 56.78125 27.484375 56.78125 20.515625 
Q 56.78125 9.90625 50.3125 4.234375 
Q 43.84375 -1.421875 31.78125 -1.421875 
Q 19.734375 -1.421875 13.25 4.234375 
Q 6.78125 9.90625 6.78125 20.515625 
Q 6.78125 27.484375 10.78125 32.3125 
Q 14.796875 37.15625 21.921875 38.8125 
z
M 18.3125 54.390625 
Q 18.3125 48.734375 21.84375 45.5625 
Q 25.390625 42.390625 31.78125 42.390625 
Q 38.140625 42.390625 41.71875 45.5625 
Q 45.3125 48.734375 45.3125 54.390625 
Q 45.3125 60.0625 41.71875 63.234375 
Q 38.140625 66.40625 31.78125 66.40625 
Q 25.390625 66.40625 21.84375 63.234375 
Q 18.3125 60.0625 18.3125 54.390625 
z
" id="DejaVuSans-38"/>
      </defs>
      <g transform="translate(39.55 221.340615)scale(0.1 -0.1)">
       <use xlink:href="#DejaVuSans-38"/>
       <use x="63.623047" xlink:href="#DejaVuSans-30"/>
       <use x="127.246094" xlink:href="#DejaVuSans-30"/>
       <use x="190.869141" xlink:href="#DejaVuSans-30"/>
      </g>
     </g>
    </g>
    <g id="ytick_6">
     <g id="line2d_25">
      <path clip-path="url(#p4043edc133)" d="M 72 181.133109 
L 518.4 181.133109 
" style="fill:none;stroke:#b0b0b0;stroke-linecap:square;stroke-width:0.8;"/>
     </g>
     <g id="line2d_26">
      <g>
       <use style="stroke:#000000;stroke-width:0.8;" x="72" xlink:href="#m868fdf5250" y="181.133109"/>
      </g>
     </g>
     <g id="text_14">
      <!-- 10000 -->
      <defs>
       <path d="M 12.40625 8.296875 
L 28.515625 8.296875 
L 28.515625 63.921875 
L 10.984375 60.40625 
L 10.984375 69.390625 
L 28.421875 72.90625 
L 38.28125 72.90625 
L 38.28125 8.296875 
L 54.390625 8.296875 
L 54.390625 0 
L 12.40625 0 
z
" id="DejaVuSans-31"/>
      </defs>
      <g transform="translate(33.1875 184.932328)scale(0.1 -0.1)">
       <use xlink:href="#DejaVuSans-31"/>
       <use x="63.623047" xlink:href="#DejaVuSans-30"/>
       <use x="127.246094" xlink:href="#DejaVuSans-30"/>
       <use x="190.869141" xlink:href="#DejaVuSans-30"/>
       <use x="254.492188" xlink:href="#DejaVuSans-30"/>
      </g>
     </g>
    </g>
    <g id="ytick_7">
     <g id="line2d_27">
      <path clip-path="url(#p4043edc133)" d="M 72 144.724822 
L 518.4 144.724822 
" style="fill:none;stroke:#b0b0b0;stroke-linecap:square;stroke-width:0.8;"/>
     </g>
     <g id="line2d_28">
      <g>
       <use style="stroke:#000000;stroke-width:0.8;" x="72" xlink:href="#m868fdf5250" y="144.724822"/>
      </g>
     </g>
     <g id="text_15">
      <!-- 12000 -->
      <g transform="translate(33.1875 148.524041)scale(0.1 -0.1)">
       <use xlink:href="#DejaVuSans-31"/>
       <use x="63.623047" xlink:href="#DejaVuSans-32"/>
       <use x="127.246094" xlink:href="#DejaVuSans-30"/>
       <use x="190.869141" xlink:href="#DejaVuSans-30"/>
       <use x="254.492188" xlink:href="#DejaVuSans-30"/>
      </g>
     </g>
    </g>
    <g id="ytick_8">
     <g id="line2d_29">
      <path clip-path="url(#p4043edc133)" d="M 72 108.316535 
L 518.4 108.316535 
" style="fill:none;stroke:#b0b0b0;stroke-linecap:square;stroke-width:0.8;"/>
     </g>
     <g id="line2d_30">
      <g>
       <use style="stroke:#000000;stroke-width:0.8;" x="72" xlink:href="#m868fdf5250" y="108.316535"/>
      </g>
     </g>
     <g id="text_16">
      <!-- 14000 -->
      <g transform="translate(33.1875 112.115754)scale(0.1 -0.1)">
       <use xlink:href="#DejaVuSans-31"/>
       <use x="63.623047" xlink:href="#DejaVuSans-34"/>
       <use x="127.246094" xlink:href="#DejaVuSans-30"/>
       <use x="190.869141" xlink:href="#DejaVuSans-30"/>
       <use x="254.492188" xlink:href="#DejaVuSans-30"/>
      </g>
     </g>
    </g>
    <g id="ytick_9">
     <g id="line2d_31">
      <path clip-path="url(#p4043edc133)" d="M 72 71.908248 
L 518.4 71.908248 
" style="fill:none;stroke:#b0b0b0;stroke-linecap:square;stroke-width:0.8;"/>
     </g>
     <g id="line2d_32">
      <g>
       <use style="stroke:#000000;stroke-width:0.8;" x="72" xlink:href="#m868fdf5250" y="71.908248"/>
      </g>
     </g>
     <g id="text_17">
      <!-- 16000 -->
      <g transform="translate(33.1875 75.707467)scale(0.1 -0.1)">
       <use xlink:href="#DejaVuSans-31"/>
       <use x="63.623047" xlink:href="#DejaVuSans-36"/>
       <use x="127.246094" xlink:href="#DejaVuSans-30"/>
       <use x="190.869141" xlink:href="#DejaVuSans-30"/>
       <use x="254.492188" xlink:href="#DejaVuSans-30"/>
      </g>
     </g>
    </g>
    <g id="text_18">
     <!-- Број пријављених студената -->
     <defs>
      <path d="M 51.125 21.4375 
Q 51.125 28.21875 47.28125 31.515625 
Q 43.453125 34.8125 35.5 34.8125 
L 19.671875 34.8125 
L 19.671875 8.109375 
L 35.5 8.109375 
Q 43.453125 8.109375 47.28125 11.40625 
Q 51.125 14.703125 51.125 21.4375 
z
M 56.390625 72.90625 
L 56.390625 64.796875 
L 19.671875 64.796875 
L 19.671875 42.921875 
L 35.984375 42.921875 
Q 48.25 42.921875 54.890625 37.59375 
Q 61.53125 32.28125 61.53125 21.4375 
Q 61.53125 10.640625 55.109375 5.3125 
Q 48.6875 0 35.984375 0 
L 9.8125 0 
L 9.8125 72.90625 
z
" id="DejaVuSans-411"/>
      <path id="DejaVuSans-20"/>
      <path d="M 55.90625 54.6875 
L 55.90625 0 
L 46.96875 0 
L 46.96875 43.890625 
L 20.609375 0 
L 9.078125 0 
L 9.078125 54.6875 
L 18.015625 54.6875 
L 18.015625 10.890625 
L 44.34375 54.6875 
z
" id="DejaVuSans-438"/>
      <path d="M 3.71875 0 
L 3.71875 7.46875 
Q 12.59375 8.84375 15.328125 14.984375 
Q 18.65625 23.640625 18.65625 45.75 
L 18.65625 54.6875 
L 54.203125 54.6875 
L 54.203125 32.375 
L 62.546875 32.375 
Q 73 32.375 78.65625 28.390625 
Q 84.328125 24.421875 84.328125 16.21875 
Q 84.328125 8.015625 78.6875 4 
Q 73.046875 0 62.59375 0 
L 45.171875 0 
L 45.171875 47.515625 
L 27.6875 47.515625 
L 27.6875 42.09375 
Q 27.6875 21 23.390625 11.53125 
Q 18.796875 1.421875 3.71875 0 
z
M 62.15625 7.171875 
Q 68.3125 7.171875 71.53125 9.484375 
Q 74.75 11.8125 74.75 16.21875 
Q 74.75 20.609375 71.53125 22.90625 
Q 68.3125 25.203125 62.15625 25.203125 
L 54.203125 25.203125 
L 54.203125 7.171875 
z
" id="DejaVuSans-459"/>
      <path d="M 54.890625 54.6875 
L 35.109375 28.078125 
L 55.90625 0 
L 45.3125 0 
L 29.390625 21.484375 
L 13.484375 0 
L 2.875 0 
L 24.125 28.609375 
L 4.6875 54.6875 
L 15.28125 54.6875 
L 29.78125 35.203125 
L 44.28125 54.6875 
z
" id="DejaVuSans-445"/>
      <path d="M 21.625 7.171875 
L 47.703125 7.171875 
L 47.703125 47.515625 
L 28.8125 47.515625 
L 28.8125 40.671875 
Q 28.8125 20.5625 23.046875 9.8125 
z
M 8.59375 7.171875 
Q 13.03125 9.125 14.984375 13.28125 
Q 19.78125 23.578125 19.78125 44.34375 
L 19.78125 54.6875 
L 56.734375 54.6875 
L 56.734375 7.171875 
L 63.921875 7.171875 
L 63.921875 -13.8125 
L 56.734375 -13.8125 
L 56.734375 0 
L 12.40625 0 
L 12.40625 -13.8125 
L 5.21875 -13.8125 
L 5.21875 7.171875 
z
" id="DejaVuSans-434"/>
     </defs>
     <g transform="translate(27.107812 290.773125)rotate(-90)scale(0.1 -0.1)">
      <use xlink:href="#DejaVuSans-411"/>
      <use x="68.603516" xlink:href="#DejaVuSans-440"/>
      <use x="132.080078" xlink:href="#DejaVuSans-43e"/>
      <use x="193.261719" xlink:href="#DejaVuSans-458"/>
      <use x="221.044922" xlink:href="#DejaVuSans-20"/>
      <use x="252.832031" xlink:href="#DejaVuSans-43f"/>
      <use x="318.212891" xlink:href="#DejaVuSans-440"/>
      <use x="381.689453" xlink:href="#DejaVuSans-438"/>
      <use x="446.679688" xlink:href="#DejaVuSans-458"/>
      <use x="474.462891" xlink:href="#DejaVuSans-430"/>
      <use x="535.742188" xlink:href="#DejaVuSans-432"/>
      <use x="594.677734" xlink:href="#DejaVuSans-459"/>
      <use x="684.912109" xlink:href="#DejaVuSans-435"/>
      <use x="746.435547" xlink:href="#DejaVuSans-43d"/>
      <use x="811.816406" xlink:href="#DejaVuSans-438"/>
      <use x="876.806641" xlink:href="#DejaVuSans-445"/>
      <use x="935.986328" xlink:href="#DejaVuSans-20"/>
      <use x="967.773438" xlink:href="#DejaVuSans-441"/>
      <use x="1022.753906" xlink:href="#DejaVuSans-442"/>
      <use x="1081.005859" xlink:href="#DejaVuSans-443"/>
      <use x="1140.185547" xlink:href="#DejaVuSans-434"/>
      <use x="1209.326172" xlink:href="#DejaVuSans-435"/>
      <use x="1270.849609" xlink:href="#DejaVuSans-43d"/>
      <use x="1336.230469" xlink:href="#DejaVuSans-430"/>
      <use x="1397.509766" xlink:href="#DejaVuSans-442"/>
      <use x="1455.761719" xlink:href="#DejaVuSans-430"/>
     </g>
    </g>
   </g>
   <g id="line2d_33">
    <path clip-path="url(#p4043edc133)" d="M 92.290909 113.30447 
L 159.927273 185.866187 
L 227.563636 138.426189 
L 295.2 164.822197 
L 362.836364 363.174545 
L 430.472727 180.623393 
L 498.109091 181.351559 
" style="fill:none;stroke:#0000ff;stroke-linecap:square;stroke-width:2;"/>
    <defs>
     <path d="M 0 3 
C 0.795609 3 1.55874 2.683901 2.12132 2.12132 
C 2.683901 1.55874 3 0.795609 3 0 
C 3 -0.795609 2.683901 -1.55874 2.12132 -2.12132 
C 1.55874 -2.683901 0.795609 -3 0 -3 
C -0.795609 -3 -1.55874 -2.683901 -2.12132 -2.12132 
C -2.683901 -1.55874 -3 -0.795609 -3 0 
C -3 0.795609 -2.683901 1.55874 -2.12132 2.12132 
C -1.55874 2.683901 -0.795609 3 0 3 
z
" id="mb25545b940" style="stroke:#0000ff;"/>
    </defs>
    <g clip-path="url(#p4043edc133)">
     <use style="fill:#0000ff;stroke:#0000ff;" x="92.290909" xlink:href="#mb25545b940" y="113.30447"/>
     <use style="fill:#0000ff;stroke:#0000ff;" x="159.927273" xlink:href="#mb25545b940" y="185.866187"/>
     <use style="fill:#0000ff;stroke:#0000ff;" x="227.563636" xlink:href="#mb25545b940" y="138.426189"/>
     <use style="fill:#0000ff;stroke:#0000ff;" x="295.2" xlink:href="#mb25545b940" y="164.822197"/>
     <use style="fill:#0000ff;stroke:#0000ff;" x="362.836364" xlink:href="#mb25545b940" y="363.174545"/>
     <use style="fill:#0000ff;stroke:#0000ff;" x="430.472727" xlink:href="#mb25545b940" y="180.623393"/>
     <use style="fill:#0000ff;stroke:#0000ff;" x="498.109091" xlink:href="#mb25545b940" y="181.351559"/>
    </g>
   </g>
   <g id="line2d_34">
    <path clip-path="url(#p4043edc133)" d="M 92.290909 121.114048 
L 159.927273 177.273831 
L 227.563636 137.716227 
L 295.2 166.515182 
L 362.836364 363.174545 
L 430.472727 223.84003 
L 498.109091 248.342808 
" style="fill:none;stroke:#008000;stroke-linecap:square;stroke-width:2;"/>
    <defs>
     <path d="M 0 3 
C 0.795609 3 1.55874 2.683901 2.12132 2.12132 
C 2.683901 1.55874 3 0.795609 3 0 
C 3 -0.795609 2.683901 -1.55874 2.12132 -2.12132 
C 1.55874 -2.683901 0.795609 -3 0 -3 
C -0.795609 -3 -1.55874 -2.683901 -2.12132 -2.12132 
C -2.683901 -1.55874 -3 -0.795609 -3 0 
C -3 0.795609 -2.683901 1.55874 -2.12132 2.12132 
C -1.55874 2.683901 -0.795609 3 0 3 
z
" id="me737f0aee6" style="stroke:#008000;"/>
    </defs>
    <g clip-path="url(#p4043edc133)">
     <use style="fill:#008000;stroke:#008000;" x="92.290909" xlink:href="#me737f0aee6" y="121.114048"/>
     <use style="fill:#008000;stroke:#008000;" x="159.927273" xlink:href="#me737f0aee6" y="177.273831"/>
     <use style="fill:#008000;stroke:#008000;" x="227.563636" xlink:href="#me737f0aee6" y="137.716227"/>
     <use style="fill:#008000;stroke:#008000;" x="295.2" xlink:href="#me737f0aee6" y="166.515182"/>
     <use style="fill:#008000;stroke:#008000;" x="362.836364" xlink:href="#me737f0aee6" y="363.174545"/>
     <use style="fill:#008000;stroke:#008000;" x="430.472727" xlink:href="#me737f0aee6" y="223.84003"/>
     <use style="fill:#008000;stroke:#008000;" x="498.109091" xlink:href="#me737f0aee6" y="248.342808"/>
    </g>
   </g>
   <g id="line2d_35">
    <path clip-path="url(#p4043edc133)" d="M 92.290909 116.635829 
L 159.927273 169.172987 
L 227.563636 134.384869 
L 295.2 160.544223 
L 362.836364 219.27079 
L 430.472727 245.430145 
L 498.109091 363.174545 
" style="fill:none;stroke:#ffff00;stroke-linecap:square;stroke-width:2;"/>
    <defs>
     <path d="M 0 3 
C 0.795609 3 1.55874 2.683901 2.12132 2.12132 
C 2.683901 1.55874 3 0.795609 3 0 
C 3 -0.795609 2.683901 -1.55874 2.12132 -2.12132 
C 1.55874 -2.683901 0.795609 -3 0 -3 
C -0.795609 -3 -1.55874 -2.683901 -2.12132 -2.12132 
C -2.683901 -1.55874 -3 -0.795609 -3 0 
C -3 0.795609 -2.683901 1.55874 -2.12132 2.12132 
C -1.55874 2.683901 -0.795609 3 0 3 
z
" id="mb6e8beb896" style="stroke:#ffff00;"/>
    </defs>
    <g clip-path="url(#p4043edc133)">
     <use style="fill:#ffff00;stroke:#ffff00;" x="92.290909" xlink:href="#mb6e8beb896" y="116.635829"/>
     <use style="fill:#ffff00;stroke:#ffff00;" x="159.927273" xlink:href="#mb6e8beb896" y="169.172987"/>
     <use style="fill:#ffff00;stroke:#ffff00;" x="227.563636" xlink:href="#mb6e8beb896" y="134.384869"/>
     <use style="fill:#ffff00;stroke:#ffff00;" x="295.2" xlink:href="#mb6e8beb896" y="160.544223"/>
     <use style="fill:#ffff00;stroke:#ffff00;" x="362.836364" xlink:href="#mb6e8beb896" y="219.27079"/>
     <use style="fill:#ffff00;stroke:#ffff00;" x="430.472727" xlink:href="#mb6e8beb896" y="245.430145"/>
     <use style="fill:#ffff00;stroke:#ffff00;" x="498.109091" xlink:href="#mb6e8beb896" y="363.174545"/>
    </g>
   </g>
   <g id="line2d_36">
    <path clip-path="url(#p4043edc133)" d="M 92.290909 93.498362 
L 159.927273 144.961476 
L 227.563636 110.082337 
L 295.2 114.633373 
L 362.836364 183.226586 
L 430.472727 213.372648 
L 498.109091 256.880551 
" style="fill:none;stroke:#00ffff;stroke-linecap:square;stroke-width:2;"/>
    <defs>
     <path d="M 0 3 
C 0.795609 3 1.55874 2.683901 2.12132 2.12132 
C 2.683901 1.55874 3 0.795609 3 0 
C 3 -0.795609 2.683901 -1.55874 2.12132 -2.12132 
C 1.55874 -2.683901 0.795609 -3 0 -3 
C -0.795609 -3 -1.55874 -2.683901 -2.12132 -2.12132 
C -2.683901 -1.55874 -3 -0.795609 -3 0 
C -3 0.795609 -2.683901 1.55874 -2.12132 2.12132 
C -1.55874 2.683901 -0.795609 3 0 3 
z
" id="m7fe66dc8c6" style="stroke:#00ffff;"/>
    </defs>
    <g clip-path="url(#p4043edc133)">
     <use style="fill:#00ffff;stroke:#00ffff;" x="92.290909" xlink:href="#m7fe66dc8c6" y="93.498362"/>
     <use style="fill:#00ffff;stroke:#00ffff;" x="159.927273" xlink:href="#m7fe66dc8c6" y="144.961476"/>
     <use style="fill:#00ffff;stroke:#00ffff;" x="227.563636" xlink:href="#m7fe66dc8c6" y="110.082337"/>
     <use style="fill:#00ffff;stroke:#00ffff;" x="295.2" xlink:href="#m7fe66dc8c6" y="114.633373"/>
     <use style="fill:#00ffff;stroke:#00ffff;" x="362.836364" xlink:href="#m7fe66dc8c6" y="183.226586"/>
     <use style="fill:#00ffff;stroke:#00ffff;" x="430.472727" xlink:href="#m7fe66dc8c6" y="213.372648"/>
     <use style="fill:#00ffff;stroke:#00ffff;" x="498.109091" xlink:href="#m7fe66dc8c6" y="256.880551"/>
    </g>
   </g>
   <g id="line2d_37">
    <path clip-path="url(#p4043edc133)" d="M 92.290909 66.665455 
L 159.927273 139.536641 
L 227.563636 104.60289 
L 295.2 128.286481 
L 362.836364 175.180355 
L 430.472727 205.362825 
L 498.109091 287.427104 
" style="fill:none;stroke:#ffa500;stroke-linecap:square;stroke-width:2;"/>
    <defs>
     <path d="M 0 3 
C 0.795609 3 1.55874 2.683901 2.12132 2.12132 
C 2.683901 1.55874 3 0.795609 3 0 
C 3 -0.795609 2.683901 -1.55874 2.12132 -2.12132 
C 1.55874 -2.683901 0.795609 -3 0 -3 
C -0.795609 -3 -1.55874 -2.683901 -2.12132 -2.12132 
C -2.683901 -1.55874 -3 -0.795609 -3 0 
C -3 0.795609 -2.683901 1.55874 -2.12132 2.12132 
C -1.55874 2.683901 -0.795609 3 0 3 
z
" id="md44c918611" style="stroke:#ffa500;"/>
    </defs>
    <g clip-path="url(#p4043edc133)">
     <use style="fill:#ffa500;stroke:#ffa500;" x="92.290909" xlink:href="#md44c918611" y="66.665455"/>
     <use style="fill:#ffa500;stroke:#ffa500;" x="159.927273" xlink:href="#md44c918611" y="139.536641"/>
     <use style="fill:#ffa500;stroke:#ffa500;" x="227.563636" xlink:href="#md44c918611" y="104.60289"/>
     <use style="fill:#ffa500;stroke:#ffa500;" x="295.2" xlink:href="#md44c918611" y="128.286481"/>
     <use style="fill:#ffa500;stroke:#ffa500;" x="362.836364" xlink:href="#md44c918611" y="175.180355"/>
     <use style="fill:#ffa500;stroke:#ffa500;" x="430.472727" xlink:href="#md44c918611" y="205.362825"/>
     <use style="fill:#ffa500;stroke:#ffa500;" x="498.109091" xlink:href="#md44c918611" y="287.427104"/>
    </g>
   </g>
   <g id="patch_3">
    <path d="M 72 378 
L 72 51.84 
" style="fill:none;stroke:#000000;stroke-linecap:square;stroke-linejoin:miter;stroke-width:0.8;"/>
   </g>
   <g id="patch_4">
    <path d="M 518.4 378 
L 518.4 51.84 
" style="fill:none;stroke:#000000;stroke-linecap:square;stroke-linejoin:miter;stroke-width:0.8;"/>
   </g>
   <g id="patch_5">
    <path d="M 72 378 
L 518.4 378 
" style="fill:none;stroke:#000000;stroke-linecap:square;stroke-linejoin:miter;stroke-width:0.8;"/>
   </g>
   <g id="patch_6">
    <path d="M 72 51.84 
L 518.4 51.84 
" style="fill:none;stroke:#000000;stroke-linecap:square;stroke-linejoin:miter;stroke-width:0.8;"/>
   </g>
   <g id="text_19">
    <!-- Основне студије: Број студената који су пријавили испит -->
    <defs>
     <path d="M 39.40625 66.21875 
Q 28.65625 66.21875 22.328125 58.203125 
Q 16.015625 50.203125 16.015625 36.375 
Q 16.015625 22.609375 22.328125 14.59375 
Q 28.65625 6.59375 39.40625 6.59375 
Q 50.140625 6.59375 56.421875 14.59375 
Q 62.703125 22.609375 62.703125 36.375 
Q 62.703125 50.203125 56.421875 58.203125 
Q 50.140625 66.21875 39.40625 66.21875 
z
M 39.40625 74.21875 
Q 54.734375 74.21875 63.90625 63.9375 
Q 73.09375 53.65625 73.09375 36.375 
Q 73.09375 19.140625 63.90625 8.859375 
Q 54.734375 -1.421875 39.40625 -1.421875 
Q 24.03125 -1.421875 14.8125 8.828125 
Q 5.609375 19.09375 5.609375 36.375 
Q 5.609375 53.65625 14.8125 63.9375 
Q 24.03125 74.21875 39.40625 74.21875 
z
" id="DejaVuSans-41e"/>
     <path d="M 11.71875 12.40625 
L 22.015625 12.40625 
L 22.015625 0 
L 11.71875 0 
z
M 11.71875 51.703125 
L 22.015625 51.703125 
L 22.015625 39.3125 
L 11.71875 39.3125 
z
" id="DejaVuSans-3a"/>
    </defs>
    <g transform="translate(112.72125 45.84)scale(0.12 -0.12)">
     <use xlink:href="#DejaVuSans-41e"/>
     <use x="78.710938" xlink:href="#DejaVuSans-441"/>
     <use x="133.691406" xlink:href="#DejaVuSans-43d"/>
     <use x="199.072266" xlink:href="#DejaVuSans-43e"/>
     <use x="260.253906" xlink:href="#DejaVuSans-432"/>
     <use x="319.189453" xlink:href="#DejaVuSans-43d"/>
     <use x="384.570312" xlink:href="#DejaVuSans-435"/>
     <use x="446.09375" xlink:href="#DejaVuSans-20"/>
     <use x="477.880859" xlink:href="#DejaVuSans-441"/>
     <use x="532.861328" xlink:href="#DejaVuSans-442"/>
     <use x="591.113281" xlink:href="#DejaVuSans-443"/>
     <use x="650.292969" xlink:href="#DejaVuSans-434"/>
     <use x="719.433594" xlink:href="#DejaVuSans-438"/>
     <use x="784.423828" xlink:href="#DejaVuSans-458"/>
     <use x="812.207031" xlink:href="#DejaVuSans-435"/>
     <use x="873.730469" xlink:href="#DejaVuSans-3a"/>
     <use x="907.421875" xlink:href="#DejaVuSans-20"/>
     <use x="939.208984" xlink:href="#DejaVuSans-411"/>
     <use x="1007.8125" xlink:href="#DejaVuSans-440"/>
     <use x="1071.289062" xlink:href="#DejaVuSans-43e"/>
     <use x="1132.470703" xlink:href="#DejaVuSans-458"/>
     <use x="1160.253906" xlink:href="#DejaVuSans-20"/>
     <use x="1192.041016" xlink:href="#DejaVuSans-441"/>
     <use x="1247.021484" xlink:href="#DejaVuSans-442"/>
     <use x="1305.273438" xlink:href="#DejaVuSans-443"/>
     <use x="1364.453125" xlink:href="#DejaVuSans-434"/>
     <use x="1433.59375" xlink:href="#DejaVuSans-435"/>
     <use x="1495.117188" xlink:href="#DejaVuSans-43d"/>
     <use x="1560.498047" xlink:href="#DejaVuSans-430"/>
     <use x="1621.777344" xlink:href="#DejaVuSans-442"/>
     <use x="1680.029297" xlink:href="#DejaVuSans-430"/>
     <use x="1741.308594" xlink:href="#DejaVuSans-20"/>
     <use x="1773.095703" xlink:href="#DejaVuSans-43a"/>
     <use x="1833.496094" xlink:href="#DejaVuSans-43e"/>
     <use x="1894.677734" xlink:href="#DejaVuSans-458"/>
     <use x="1922.460938" xlink:href="#DejaVuSans-438"/>
     <use x="1987.451172" xlink:href="#DejaVuSans-20"/>
     <use x="2019.238281" xlink:href="#DejaVuSans-441"/>
     <use x="2074.21875" xlink:href="#DejaVuSans-443"/>
     <use x="2133.398438" xlink:href="#DejaVuSans-20"/>
     <use x="2165.185547" xlink:href="#DejaVuSans-43f"/>
     <use x="2230.566406" xlink:href="#DejaVuSans-440"/>
     <use x="2294.042969" xlink:href="#DejaVuSans-438"/>
     <use x="2359.033203" xlink:href="#DejaVuSans-458"/>
     <use x="2386.816406" xlink:href="#DejaVuSans-430"/>
     <use x="2448.095703" xlink:href="#DejaVuSans-432"/>
     <use x="2507.03125" xlink:href="#DejaVuSans-438"/>
     <use x="2572.021484" xlink:href="#DejaVuSans-43b"/>
     <use x="2635.9375" xlink:href="#DejaVuSans-438"/>
     <use x="2700.927734" xlink:href="#DejaVuSans-20"/>
     <use x="2732.714844" xlink:href="#DejaVuSans-438"/>
     <use x="2797.705078" xlink:href="#DejaVuSans-441"/>
     <use x="2852.685547" xlink:href="#DejaVuSans-43f"/>
     <use x="2918.066406" xlink:href="#DejaVuSans-438"/>
     <use x="2983.056641" xlink:href="#DejaVuSans-442"/>
    </g>
   </g>
   <g id="legend_1">
    <g id="patch_7">
     <path d="M 416.7125 133.230625 
L 511.4 133.230625 
Q 513.4 133.230625 513.4 131.230625 
L 513.4 58.84 
Q 513.4 56.84 511.4 56.84 
L 416.7125 56.84 
Q 414.7125 56.84 414.7125 58.84 
L 414.7125 131.230625 
Q 414.7125 133.230625 416.7125 133.230625 
z
" style="fill:#ffffff;opacity:0.8;stroke:#cccccc;stroke-linejoin:miter;"/>
    </g>
    <g id="line2d_38">
     <path d="M 418.7125 64.938437 
L 438.7125 64.938437 
" style="fill:none;stroke:#0000ff;stroke-linecap:square;stroke-width:2;"/>
    </g>
    <g id="line2d_39">
     <g>
      <use style="fill:#0000ff;stroke:#0000ff;" x="428.7125" xlink:href="#mb25545b940" y="64.938437"/>
     </g>
    </g>
    <g id="text_20">
     <!-- 2016 godina -->
     <defs>
      <path d="M 45.40625 27.984375 
Q 45.40625 37.75 41.375 43.109375 
Q 37.359375 48.484375 30.078125 48.484375 
Q 22.859375 48.484375 18.828125 43.109375 
Q 14.796875 37.75 14.796875 27.984375 
Q 14.796875 18.265625 18.828125 12.890625 
Q 22.859375 7.515625 30.078125 7.515625 
Q 37.359375 7.515625 41.375 12.890625 
Q 45.40625 18.265625 45.40625 27.984375 
z
M 54.390625 6.78125 
Q 54.390625 -7.171875 48.1875 -13.984375 
Q 42 -20.796875 29.203125 -20.796875 
Q 24.46875 -20.796875 20.265625 -20.09375 
Q 16.0625 -19.390625 12.109375 -17.921875 
L 12.109375 -9.1875 
Q 16.0625 -11.328125 19.921875 -12.34375 
Q 23.78125 -13.375 27.78125 -13.375 
Q 36.625 -13.375 41.015625 -8.765625 
Q 45.40625 -4.15625 45.40625 5.171875 
L 45.40625 9.625 
Q 42.625 4.78125 38.28125 2.390625 
Q 33.9375 0 27.875 0 
Q 17.828125 0 11.671875 7.65625 
Q 5.515625 15.328125 5.515625 27.984375 
Q 5.515625 40.671875 11.671875 48.328125 
Q 17.828125 56 27.875 56 
Q 33.9375 56 38.28125 53.609375 
Q 42.625 51.21875 45.40625 46.390625 
L 45.40625 54.6875 
L 54.390625 54.6875 
z
" id="DejaVuSans-67"/>
      <path d="M 30.609375 48.390625 
Q 23.390625 48.390625 19.1875 42.75 
Q 14.984375 37.109375 14.984375 27.296875 
Q 14.984375 17.484375 19.15625 11.84375 
Q 23.34375 6.203125 30.609375 6.203125 
Q 37.796875 6.203125 41.984375 11.859375 
Q 46.1875 17.53125 46.1875 27.296875 
Q 46.1875 37.015625 41.984375 42.703125 
Q 37.796875 48.390625 30.609375 48.390625 
z
M 30.609375 56 
Q 42.328125 56 49.015625 48.375 
Q 55.71875 40.765625 55.71875 27.296875 
Q 55.71875 13.875 49.015625 6.21875 
Q 42.328125 -1.421875 30.609375 -1.421875 
Q 18.84375 -1.421875 12.171875 6.21875 
Q 5.515625 13.875 5.515625 27.296875 
Q 5.515625 40.765625 12.171875 48.375 
Q 18.84375 56 30.609375 56 
z
" id="DejaVuSans-6f"/>
      <path d="M 45.40625 46.390625 
L 45.40625 75.984375 
L 54.390625 75.984375 
L 54.390625 0 
L 45.40625 0 
L 45.40625 8.203125 
Q 42.578125 3.328125 38.25 0.953125 
Q 33.9375 -1.421875 27.875 -1.421875 
Q 17.96875 -1.421875 11.734375 6.484375 
Q 5.515625 14.40625 5.515625 27.296875 
Q 5.515625 40.1875 11.734375 48.09375 
Q 17.96875 56 27.875 56 
Q 33.9375 56 38.25 53.625 
Q 42.578125 51.265625 45.40625 46.390625 
z
M 14.796875 27.296875 
Q 14.796875 17.390625 18.875 11.75 
Q 22.953125 6.109375 30.078125 6.109375 
Q 37.203125 6.109375 41.296875 11.75 
Q 45.40625 17.390625 45.40625 27.296875 
Q 45.40625 37.203125 41.296875 42.84375 
Q 37.203125 48.484375 30.078125 48.484375 
Q 22.953125 48.484375 18.875 42.84375 
Q 14.796875 37.203125 14.796875 27.296875 
z
" id="DejaVuSans-64"/>
      <path d="M 9.421875 54.6875 
L 18.40625 54.6875 
L 18.40625 0 
L 9.421875 0 
z
M 9.421875 75.984375 
L 18.40625 75.984375 
L 18.40625 64.59375 
L 9.421875 64.59375 
z
" id="DejaVuSans-69"/>
      <path d="M 54.890625 33.015625 
L 54.890625 0 
L 45.90625 0 
L 45.90625 32.71875 
Q 45.90625 40.484375 42.875 44.328125 
Q 39.84375 48.1875 33.796875 48.1875 
Q 26.515625 48.1875 22.3125 43.546875 
Q 18.109375 38.921875 18.109375 30.90625 
L 18.109375 0 
L 9.078125 0 
L 9.078125 54.6875 
L 18.109375 54.6875 
L 18.109375 46.1875 
Q 21.34375 51.125 25.703125 53.5625 
Q 30.078125 56 35.796875 56 
Q 45.21875 56 50.046875 50.171875 
Q 54.890625 44.34375 54.890625 33.015625 
z
" id="DejaVuSans-6e"/>
      <path d="M 34.28125 27.484375 
Q 23.390625 27.484375 19.1875 25 
Q 14.984375 22.515625 14.984375 16.5 
Q 14.984375 11.71875 18.140625 8.90625 
Q 21.296875 6.109375 26.703125 6.109375 
Q 34.1875 6.109375 38.703125 11.40625 
Q 43.21875 16.703125 43.21875 25.484375 
L 43.21875 27.484375 
z
M 52.203125 31.203125 
L 52.203125 0 
L 43.21875 0 
L 43.21875 8.296875 
Q 40.140625 3.328125 35.546875 0.953125 
Q 30.953125 -1.421875 24.3125 -1.421875 
Q 15.921875 -1.421875 10.953125 3.296875 
Q 6 8.015625 6 15.921875 
Q 6 25.140625 12.171875 29.828125 
Q 18.359375 34.515625 30.609375 34.515625 
L 43.21875 34.515625 
L 43.21875 35.40625 
Q 43.21875 41.609375 39.140625 45 
Q 35.0625 48.390625 27.6875 48.390625 
Q 23 48.390625 18.546875 47.265625 
Q 14.109375 46.140625 10.015625 43.890625 
L 10.015625 52.203125 
Q 14.9375 54.109375 19.578125 55.046875 
Q 24.21875 56 28.609375 56 
Q 40.484375 56 46.34375 49.84375 
Q 52.203125 43.703125 52.203125 31.203125 
z
" id="DejaVuSans-61"/>
     </defs>
     <g transform="translate(446.7125 68.438437)scale(0.1 -0.1)">
      <use xlink:href="#DejaVuSans-32"/>
      <use x="63.623047" xlink:href="#DejaVuSans-30"/>
      <use x="127.246094" xlink:href="#DejaVuSans-31"/>
      <use x="190.869141" xlink:href="#DejaVuSans-36"/>
      <use x="254.492188" xlink:href="#DejaVuSans-20"/>
      <use x="286.279297" xlink:href="#DejaVuSans-67"/>
      <use x="349.755859" xlink:href="#DejaVuSans-6f"/>
      <use x="410.9375" xlink:href="#DejaVuSans-64"/>
      <use x="474.414062" xlink:href="#DejaVuSans-69"/>
      <use x="502.197266" xlink:href="#DejaVuSans-6e"/>
      <use x="565.576172" xlink:href="#DejaVuSans-61"/>
     </g>
    </g>
    <g id="line2d_40">
     <path d="M 418.7125 79.616562 
L 438.7125 79.616562 
" style="fill:none;stroke:#008000;stroke-linecap:square;stroke-width:2;"/>
    </g>
    <g id="line2d_41">
     <g>
      <use style="fill:#008000;stroke:#008000;" x="428.7125" xlink:href="#me737f0aee6" y="79.616562"/>
     </g>
    </g>
    <g id="text_21">
     <!-- 2017 godina -->
     <defs>
      <path d="M 8.203125 72.90625 
L 55.078125 72.90625 
L 55.078125 68.703125 
L 28.609375 0 
L 18.3125 0 
L 43.21875 64.59375 
L 8.203125 64.59375 
z
" id="DejaVuSans-37"/>
     </defs>
     <g transform="translate(446.7125 83.116562)scale(0.1 -0.1)">
      <use xlink:href="#DejaVuSans-32"/>
      <use x="63.623047" xlink:href="#DejaVuSans-30"/>
      <use x="127.246094" xlink:href="#DejaVuSans-31"/>
      <use x="190.869141" xlink:href="#DejaVuSans-37"/>
      <use x="254.492188" xlink:href="#DejaVuSans-20"/>
      <use x="286.279297" xlink:href="#DejaVuSans-67"/>
      <use x="349.755859" xlink:href="#DejaVuSans-6f"/>
      <use x="410.9375" xlink:href="#DejaVuSans-64"/>
      <use x="474.414062" xlink:href="#DejaVuSans-69"/>
      <use x="502.197266" xlink:href="#DejaVuSans-6e"/>
      <use x="565.576172" xlink:href="#DejaVuSans-61"/>
     </g>
    </g>
    <g id="line2d_42">
     <path d="M 418.7125 94.294687 
L 438.7125 94.294687 
" style="fill:none;stroke:#ffff00;stroke-linecap:square;stroke-width:2;"/>
    </g>
    <g id="line2d_43">
     <g>
      <use style="fill:#ffff00;stroke:#ffff00;" x="428.7125" xlink:href="#mb6e8beb896" y="94.294687"/>
     </g>
    </g>
    <g id="text_22">
     <!-- 2018 godina -->
     <g transform="translate(446.7125 97.794687)scale(0.1 -0.1)">
      <use xlink:href="#DejaVuSans-32"/>
      <use x="63.623047" xlink:href="#DejaVuSans-30"/>
      <use x="127.246094" xlink:href="#DejaVuSans-31"/>
      <use x="190.869141" xlink:href="#DejaVuSans-38"/>
      <use x="254.492188" xlink:href="#DejaVuSans-20"/>
      <use x="286.279297" xlink:href="#DejaVuSans-67"/>
      <use x="349.755859" xlink:href="#DejaVuSans-6f"/>
      <use x="410.9375" xlink:href="#DejaVuSans-64"/>
      <use x="474.414062" xlink:href="#DejaVuSans-69"/>
      <use x="502.197266" xlink:href="#DejaVuSans-6e"/>
      <use x="565.576172" xlink:href="#DejaVuSans-61"/>
     </g>
    </g>
    <g id="line2d_44">
     <path d="M 418.7125 108.972812 
L 438.7125 108.972812 
" style="fill:none;stroke:#00ffff;stroke-linecap:square;stroke-width:2;"/>
    </g>
    <g id="line2d_45">
     <g>
      <use style="fill:#00ffff;stroke:#00ffff;" x="428.7125" xlink:href="#m7fe66dc8c6" y="108.972812"/>
     </g>
    </g>
    <g id="text_23">
     <!-- 2019 godina -->
     <defs>
      <path d="M 10.984375 1.515625 
L 10.984375 10.5 
Q 14.703125 8.734375 18.5 7.8125 
Q 22.3125 6.890625 25.984375 6.890625 
Q 35.75 6.890625 40.890625 13.453125 
Q 46.046875 20.015625 46.78125 33.40625 
Q 43.953125 29.203125 39.59375 26.953125 
Q 35.25 24.703125 29.984375 24.703125 
Q 19.046875 24.703125 12.671875 31.3125 
Q 6.296875 37.9375 6.296875 49.421875 
Q 6.296875 60.640625 12.9375 67.421875 
Q 19.578125 74.21875 30.609375 74.21875 
Q 43.265625 74.21875 49.921875 64.515625 
Q 56.59375 54.828125 56.59375 36.375 
Q 56.59375 19.140625 48.40625 8.859375 
Q 40.234375 -1.421875 26.421875 -1.421875 
Q 22.703125 -1.421875 18.890625 -0.6875 
Q 15.09375 0.046875 10.984375 1.515625 
z
M 30.609375 32.421875 
Q 37.25 32.421875 41.125 36.953125 
Q 45.015625 41.5 45.015625 49.421875 
Q 45.015625 57.28125 41.125 61.84375 
Q 37.25 66.40625 30.609375 66.40625 
Q 23.96875 66.40625 20.09375 61.84375 
Q 16.21875 57.28125 16.21875 49.421875 
Q 16.21875 41.5 20.09375 36.953125 
Q 23.96875 32.421875 30.609375 32.421875 
z
" id="DejaVuSans-39"/>
     </defs>
     <g transform="translate(446.7125 112.472812)scale(0.1 -0.1)">
      <use xlink:href="#DejaVuSans-32"/>
      <use x="63.623047" xlink:href="#DejaVuSans-30"/>
      <use x="127.246094" xlink:href="#DejaVuSans-31"/>
      <use x="190.869141" xlink:href="#DejaVuSans-39"/>
      <use x="254.492188" xlink:href="#DejaVuSans-20"/>
      <use x="286.279297" xlink:href="#DejaVuSans-67"/>
      <use x="349.755859" xlink:href="#DejaVuSans-6f"/>
      <use x="410.9375" xlink:href="#DejaVuSans-64"/>
      <use x="474.414062" xlink:href="#DejaVuSans-69"/>
      <use x="502.197266" xlink:href="#DejaVuSans-6e"/>
      <use x="565.576172" xlink:href="#DejaVuSans-61"/>
     </g>
    </g>
    <g id="line2d_46">
     <path d="M 418.7125 123.650937 
L 438.7125 123.650937 
" style="fill:none;stroke:#ffa500;stroke-linecap:square;stroke-width:2;"/>
    </g>
    <g id="line2d_47">
     <g>
      <use style="fill:#ffa500;stroke:#ffa500;" x="428.7125" xlink:href="#md44c918611" y="123.650937"/>
     </g>
    </g>
    <g id="text_24">
     <!-- 2020 godina -->
     <g transform="translate(446.7125 127.150937)scale(0.1 -0.1)">
      <use xlink:href="#DejaVuSans-32"/>
      <use x="63.623047" xlink:href="#DejaVuSans-30"/>
      <use x="127.246094" xlink:href="#DejaVuSans-32"/>
      <use x="190.869141" xlink:href="#DejaVuSans-30"/>
      <use x="254.492188" xlink:href="#DejaVuSans-20"/>
      <use x="286.279297" xlink:href="#DejaVuSans-67"/>
      <use x="349.755859" xlink:href="#DejaVuSans-6f"/>
      <use x="410.9375" xlink:href="#DejaVuSans-64"/>
      <use x="474.414062" xlink:href="#DejaVuSans-69"/>
      <use x="502.197266" xlink:href="#DejaVuSans-6e"/>
      <use x="565.576172" xlink:href="#DejaVuSans-61"/>
     </g>
    </g>
   </g>
  </g>
 </g>
 <defs>
  <clipPath id="p4043edc133">
   <rect height="326.16" width="446.4" x="72" y="51.84"/>
  </clipPath>
 </defs>
</svg>
